<?xml version="1.0" standalone="no"?>
<!DOCTYPE svg PUBLIC "-//W3C//DTD SVG 20010904//EN"
 "http://www.w3.org/TR/2001/REC-SVG-20010904/DTD/svg10.dtd">
<svg version="1.0" xmlns="http://www.w3.org/2000/svg"
 width="2048.000000pt" height="2048.000000pt" viewBox="0 0 2048.000000 2048.000000"
 preserveAspectRatio="xMidYMid meet">
<metadata>
Created by potrace 1.14, written by Peter Selinger 2001-2017
</metadata>
<g transform="translate(0.000000,2048.000000) scale(0.100000,-0.100000)"
fill="#000000" stroke="none">
<path d="M0 10240 l0 -10240 10240 0 10240 0 0 10240 0 10240 -10240 0 -10240
0 0 -10240z m5680 5319 c74 -16 83 -18 123 -24 21 -3 55 -12 74 -20 20 -9 50
-18 67 -21 110 -19 690 -231 941 -343 52 -24 77 -35 275 -121 296 -130 723
-340 810 -398 14 -9 36 -23 50 -30 14 -6 43 -23 65 -36 22 -14 54 -31 71 -39
17 -8 50 -27 75 -43 61 -39 82 -52 99 -60 8 -4 58 -35 110 -69 52 -34 100 -64
105 -66 6 -2 84 -53 174 -114 89 -60 172 -115 182 -121 10 -6 27 -18 37 -27
10 -10 23 -17 29 -17 6 0 16 -6 22 -14 23 -28 48 -23 115 20 37 23 104 57 149
74 90 35 573 160 617 160 28 0 28 -1 34 -72 3 -40 10 -242 16 -448 15 -562 40
-788 170 -1505 26 -148 53 -301 59 -340 6 -38 22 -140 35 -225 14 -85 27 -182
30 -215 14 -165 19 -206 27 -210 14 -9 17 8 29 135 13 147 83 613 145 960 105
587 123 736 135 1120 6 173 14 426 19 563 4 136 10 249 12 251 2 2 56 -9 119
-24 63 -15 174 -42 247 -59 155 -37 268 -78 344 -125 30 -19 78 -49 106 -66
l53 -31 72 58 c179 145 296 223 673 448 413 247 608 352 950 509 161 74 502
215 719 297 155 58 496 177 506 176 3 0 28 7 56 17 51 16 63 20 139 36 22 5
56 14 75 20 19 6 50 13 69 16 18 2 41 8 50 13 28 15 140 -5 166 -29 79 -74 73
-200 -34 -710 -20 -97 -29 -140 -36 -175 -2 -11 -6 -31 -10 -45 -4 -14 -12
-56 -20 -95 -46 -241 -111 -489 -217 -820 -66 -206 -144 -487 -262 -940 -42
-159 -103 -391 -137 -515 -109 -407 -239 -954 -239 -1007 0 -29 17 -56 108
-171 59 -76 164 -220 232 -322 225 -335 455 -650 653 -894 54 -65 97 -122 97
-126 0 -12 -38 -17 -386 -55 -516 -57 -514 -56 -514 -112 0 -30 -38 -192 -51
-215 -5 -10 -9 -24 -9 -32 0 -22 -55 -184 -85 -251 -85 -188 -128 -257 -217
-350 -43 -44 -78 -85 -78 -91 0 -6 -7 -17 -16 -25 -9 -7 -29 -40 -46 -73 -16
-34 -43 -74 -58 -91 -16 -16 -74 -97 -130 -180 -57 -82 -125 -176 -152 -207
-27 -31 -44 -59 -39 -62 5 -3 -3 -19 -18 -35 -16 -17 -45 -63 -66 -103 -60
-116 -112 -201 -140 -231 -30 -32 -61 -34 -270 -16 l-131 11 -62 -31 c-34 -17
-95 -61 -135 -98 -91 -83 -198 -154 -352 -231 -242 -121 -409 -183 -660 -247
-268 -68 -327 -96 -481 -232 -125 -110 -172 -143 -279 -194 -232 -111 -477
-135 -729 -72 -170 43 -266 95 -428 234 -203 176 -239 194 -589 294 -278 79
-365 113 -621 241 -199 99 -209 105 -322 209 -49 44 -106 92 -128 107 -49 33
-74 34 -266 13 -74 -8 -140 -12 -147 -7 -24 13 -91 106 -164 227 -39 66 -79
125 -87 132 -10 7 -12 13 -5 18 23 14 9 50 -45 108 -31 34 -79 98 -107 142
-29 44 -71 108 -94 143 -24 34 -43 66 -43 71 0 5 -7 14 -15 21 -8 6 -32 44
-54 84 -39 72 -93 144 -180 242 -114 127 -257 482 -290 719 -6 37 -14 72 -19
77 -7 7 -109 31 -182 43 -110 18 -318 45 -330 44 -8 -1 -35 1 -60 4 -25 4
-112 14 -195 22 -169 18 -195 22 -195 33 0 5 34 46 76 93 74 81 98 111 198
244 25 33 73 96 106 140 122 160 222 301 384 538 90 133 191 274 223 312 115
137 116 139 114 206 -1 71 -21 208 -57 391 -66 346 -357 1377 -549 1948 -99
293 -169 515 -185 580 -14 60 -11 49 -68 270 -91 349 -172 784 -172 917 0 71
4 89 24 121 28 45 61 75 101 96 35 18 35 18 95 5z m624 -8863 c-5 -13 -9 -14
-21 -4 -13 10 -13 13 4 19 23 8 25 6 17 -15z m7257 -859 c-10 -9 -11 -8 -5 6
3 10 9 15 12 12 3 -3 0 -11 -7 -18z"/>
<path d="M9336 12488 c-3 -51 -10 -228 -16 -393 -15 -413 -31 -552 -95 -825
-14 -58 -38 -165 -55 -238 l-31 -133 64 -177 c77 -212 88 -248 122 -377 29
-113 79 -401 95 -550 6 -55 15 -125 20 -155 5 -30 16 -100 25 -155 16 -99 40
-192 55 -209 20 -22 102 187 153 390 86 340 108 671 106 1567 -1 560 -3 628
-16 622 -12 -4 -13 -2 -5 8 8 9 9 24 3 44 -5 16 -9 48 -9 71 0 23 -4 46 -7 52
-3 5 -2 10 3 10 5 0 7 14 4 30 -4 29 -12 37 -25 23 -4 -3 -2 -12 3 -18 8 -9 6
-14 -5 -19 -9 -3 -15 0 -15 9 0 8 -4 15 -9 15 -6 0 -9 -18 -9 -41 0 -34 3 -40
18 -36 13 3 16 0 12 -15 -4 -15 -7 -17 -13 -6 -7 10 -9 10 -10 -2 -1 -8 -1
-18 0 -22 0 -5 -4 -8 -10 -8 -7 0 -20 -10 -30 -22 l-19 -21 -1 29 c-2 37 -2
36 6 57 6 13 3 16 -9 11 -9 -3 -16 -1 -16 5 0 6 5 11 11 11 8 0 8 5 -1 15 -7
8 -10 15 -6 15 3 0 -2 9 -11 20 -22 25 -37 26 -31 2 4 -12 -1 -18 -13 -19 -11
-1 -16 3 -13 11 6 15 -23 42 -33 32 -4 -4 -1 -11 7 -16 8 -5 12 -12 8 -15 -3
-4 -16 3 -27 14 -12 12 -26 21 -32 21 -5 0 -7 5 -4 10 3 6 1 10 -6 10 -8 0 -7
5 2 17 12 14 12 15 0 9 -10 -7 -11 -3 -6 15 7 21 6 22 -9 10 -14 -12 -16 -12
-10 4 6 15 4 16 -16 5 -12 -7 -20 -8 -17 -3 15 23 17 75 4 88 -8 7 -13 31 -13
54 1 23 -3 42 -8 44 -5 2 -11 14 -13 27 -2 13 -8 27 -15 31 -6 4 -7 12 -3 18
4 7 3 17 -3 24 -5 7 -10 34 -11 62 -3 77 -9 65 -15 -37z m264 -477 c0 -5 -11
-11 -25 -13 -14 -3 -25 -2 -25 3 0 4 10 10 23 12 12 2 23 5 25 6 1 0 2 -3 2
-8z m66 -127 c-4 -9 -9 -15 -11 -12 -3 3 -3 13 1 22 4 9 9 15 11 12 3 -3 3
-13 -1 -22z"/>
<path d="M11092 12380 c-2 -56 -6 -78 -18 -87 -15 -11 -11 -38 4 -29 15 9 4
-66 -13 -84 -18 -19 -17 -20 5 -20 16 0 21 -4 16 -16 -3 -9 -6 -25 -6 -35 0
-11 -4 -17 -10 -14 -5 3 -10 2 -10 -4 0 -5 4 -12 9 -15 12 -8 20 -66 9 -66 -5
0 -6 -4 -3 -10 3 -5 -1 -10 -10 -10 -10 0 -15 -6 -13 -17 2 -10 10 -17 17 -15
17 4 10 -51 -8 -59 -11 -4 -11 -8 2 -20 18 -18 6 -46 -14 -34 -11 6 -11 5 -2
-5 6 -7 9 -20 6 -29 -4 -12 -3 -13 5 -2 6 8 12 10 16 3 4 -6 -2 -15 -11 -21
-10 -6 -14 -11 -10 -11 4 0 3 -9 -3 -20 -9 -17 -8 -20 11 -20 17 0 19 -3 10
-13 -6 -8 -7 -18 -3 -23 4 -4 0 -3 -9 4 -13 9 -16 9 -16 -3 0 -10 10 -15 29
-15 15 0 28 -4 28 -8 0 -5 -13 -7 -30 -6 -16 1 -27 -2 -24 -7 3 -5 0 -9 -5 -9
-6 0 -11 -5 -11 -11 0 -8 4 -9 13 0 8 6 17 8 20 4 11 -10 8 -23 -4 -20 -16 3
-21 -43 -7 -62 12 -14 11 -14 -4 -2 -16 12 -18 11 -18 -2 0 -8 6 -18 13 -21 6
-3 1 -3 -13 1 -23 5 -24 5 -10 -13 8 -10 15 -20 16 -22 1 -1 9 0 18 4 9 3 14
10 11 14 -3 5 4 6 15 3 11 -3 17 -9 14 -14 -3 -5 -9 -7 -14 -4 -5 3 -12 -4
-15 -16 -5 -15 -10 -18 -15 -10 -4 7 -11 11 -16 9 -5 -2 -10 2 -12 7 -4 13
-41 27 -52 20 -5 -3 -6 -13 -3 -23 5 -14 3 -15 -8 -4 -16 14 -39 16 -39 2 0
-5 7 -7 15 -4 8 4 15 1 15 -5 0 -6 -5 -11 -12 -11 -9 0 -9 -3 0 -12 7 -7 12
-18 12 -26 0 -9 -9 -6 -29 10 -15 13 -26 28 -23 33 3 6 -2 4 -11 -4 -20 -16
-13 -32 11 -25 16 5 16 5 0 -9 -10 -8 -15 -17 -11 -20 3 -4 -3 -7 -14 -7 -11
0 -20 -6 -20 -14 0 -8 6 -12 15 -9 11 5 13 1 8 -15 -6 -18 -4 -21 11 -16 17 5
17 5 0 -6 -9 -6 -22 -8 -27 -5 -6 4 -10 -7 -10 -24 0 -16 5 -33 12 -37 7 -4 8
-3 4 4 -4 7 -2 12 4 12 7 0 9 -7 6 -16 -3 -9 -6 -18 -6 -20 0 -3 -4 -2 -10 1
-5 3 -10 1 -10 -4 0 -18 -28 -12 -33 7 -3 15 -5 15 -12 -3 -12 -26 -31 -46
-39 -38 -11 11 -6 23 9 23 8 0 14 3 14 8 -4 22 3 32 21 32 22 0 22 1 25 43 1
20 -1 25 -8 18 -6 -6 -19 -11 -28 -11 -13 0 -16 7 -14 33 5 49 -3 71 -21 56
-12 -10 -13 -9 -8 5 9 23 31 20 37 -6 4 -12 9 -19 13 -15 4 3 -1 18 -10 32
-10 15 -14 34 -11 45 3 11 2 35 -3 54 -7 24 -7 36 1 39 7 2 7 10 2 23 -10 24
-10 32 -1 66 4 15 3 34 -2 44 -6 10 -6 29 -1 48 5 17 5 44 0 63 -6 21 -6 33 1
35 6 2 8 13 4 26 -4 12 -12 20 -17 17 -5 -4 -9 -2 -9 4 0 5 4 11 9 13 4 2 11
20 15 41 6 34 5 38 -20 47 -15 6 -29 8 -31 6 -8 -8 8 -26 23 -26 8 0 14 -10
14 -25 0 -25 -14 -34 -24 -16 -4 5 0 11 6 14 7 2 1 4 -14 3 -14 0 -24 -4 -21
-8 2 -5 0 -8 -5 -8 -5 0 -9 -26 -8 -57 1 -32 -1 -73 -5 -91 -4 -18 -3 -35 3
-38 7 -4 6 -9 -2 -14 -17 -10 -16 -1278 1 -1470 34 -386 63 -548 141 -790 48
-148 108 -268 128 -255 8 5 25 110 39 245 6 52 15 140 20 195 6 55 13 132 16
170 7 100 71 445 101 545 15 47 50 152 80 234 30 82 55 164 57 182 1 17 6 30
11 27 4 -3 6 3 3 13 -3 11 -9 54 -13 96 -3 43 -10 76 -14 73 -4 -2 -10 24 -13
58 -3 34 -15 114 -27 177 -29 153 -37 216 -55 400 -32 340 -32 347 -36 595 -2
99 -4 154 -6 123 -2 -32 -9 -58 -14 -58 -6 0 -7 5 -4 10 3 6 1 10 -6 10 -7 0
-10 11 -7 33 3 17 2 43 -2 57 -4 16 -7 -3 -8 -50z m-342 -466 c0 -3 -7 -1 -15
6 -8 7 -15 17 -15 22 0 5 7 3 15 -6 8 -8 15 -18 15 -22z m400 6 c0 -5 -5 -10
-11 -10 -5 0 -7 5 -4 10 3 6 8 10 11 10 2 0 4 -4 4 -10z m-380 -30 c0 -5 -2
-10 -4 -10 -3 0 -8 5 -11 10 -3 6 -1 10 4 10 6 0 11 -4 11 -10z m-15 -50 c-3
-5 -12 -10 -18 -10 -7 0 -6 4 3 10 19 12 23 12 15 0z m415 -220 c0 -5 -2 -10
-4 -10 -3 0 -8 5 -11 10 -3 6 -1 10 4 10 6 0 11 -4 11 -10z m-90 -30 c0 -5 -2
-10 -4 -10 -3 0 -8 5 -11 10 -3 6 -1 10 4 10 6 0 11 -4 11 -10z m22 -20 c-2
-16 -6 -30 -8 -30 -2 0 -4 14 -4 30 0 17 4 30 8 30 5 0 7 -13 4 -30z m13 -80
c3 -5 -1 -10 -10 -10 -9 0 -13 5 -10 10 3 6 8 10 10 10 2 0 7 -4 10 -10z m-87
-35 c0 -13 -4 -22 -9 -19 -5 3 -9 14 -9 25 0 10 4 19 9 19 5 0 9 -11 9 -25z
m-243 -125 c3 -5 -1 -10 -10 -10 -9 0 -13 5 -10 10 3 6 8 10 10 10 2 0 7 -4
10 -10z m32 -122 c-3 -8 -6 -5 -6 6 -1 11 2 17 5 13 3 -3 4 -12 1 -19z m19
-36 c-23 -23 -33 -6 -10 19 12 13 20 16 22 9 3 -7 -3 -19 -12 -28z m-56 -37
c0 -8 -4 -15 -10 -15 -5 0 -7 7 -4 15 4 8 8 15 10 15 2 0 4 -7 4 -15z"/>
<path d="M9531 12126 c-9 -10 -8 -15 4 -20 10 -4 15 1 15 14 0 24 -4 25 -19 6z"/>
<path d="M9718 12113 c7 -3 16 -2 19 1 4 3 -2 6 -13 5 -11 0 -14 -3 -6 -6z"/>
<path d="M10770 12109 c0 -5 5 -7 10 -4 6 3 10 8 10 11 0 2 -4 4 -10 4 -5 0
-10 -5 -10 -11z"/>
<path d="M10742 12098 c-16 -21 -24 -58 -13 -58 6 0 11 7 11 17 0 14 2 14 20
-2 17 -15 20 -16 20 -3 0 9 -7 19 -16 22 -9 4 -14 13 -10 21 7 18 2 19 -12 3z"/>
<path d="M10950 11750 c-13 -8 -13 -10 2 -10 9 0 20 5 23 10 8 13 -5 13 -25 0z"/>
<path d="M10970 11720 c0 -5 -7 -10 -17 -10 -9 0 -14 -3 -10 -6 8 -8 47 5 47
17 0 5 -4 9 -10 9 -5 0 -10 -4 -10 -10z"/>
<path d="M10890 11685 c0 -23 15 -32 38 -24 28 11 29 23 1 14 -14 -5 -25 -2
-30 6 -5 8 -9 10 -9 4z"/>
<path d="M10955 11650 c-3 -5 -1 -10 4 -10 6 0 11 5 11 10 0 6 -2 10 -4 10 -3
0 -8 -4 -11 -10z"/>
<path d="M11000 11633 c0 -4 5 -15 10 -23 8 -13 10 -13 10 2 0 9 -4 20 -10 23
-5 3 -10 3 -10 -2z"/>
<path d="M10843 11623 c-21 -8 -15 -22 7 -16 11 3 20 9 20 14 0 10 -8 10 -27
2z"/>
<path d="M10956 11623 c-11 -12 -6 -19 14 -19 11 0 20 3 20 7 0 10 -27 19 -34
12z"/>
<path d="M10933 11589 c3 -9 1 -21 -3 -25 -5 -5 -5 -15 0 -24 8 -12 13 -13 28
-3 15 9 22 9 31 0 6 -6 11 -8 11 -3 0 11 -27 36 -39 36 -5 0 -15 8 -21 18 -9
14 -11 14 -7 1z"/>
<path d="M10892 11538 c2 -6 10 -14 16 -16 7 -2 10 2 6 12 -7 18 -28 22 -22 4z"/>
<path d="M10858 11493 c7 -3 16 -2 19 1 4 3 -2 6 -13 5 -11 0 -14 -3 -6 -6z"/>
<path d="M10820 11450 c0 -5 10 -10 23 -10 18 0 19 2 7 10 -19 13 -30 13 -30
0z"/>
<path d="M12028 10920 c-236 -38 -468 -186 -617 -394 -78 -110 -211 -346 -211
-376 0 -33 140 -152 252 -214 288 -160 745 -173 1032 -30 203 100 443 317 573
519 40 61 81 122 93 137 20 26 20 48 -1 48 -5 0 -49 22 -97 49 -188 106 -479
218 -637 246 -111 19 -311 27 -387 15z"/>
<path d="M8106 10910 c-80 -13 -224 -52 -327 -90 -116 -42 -475 -218 -471
-232 5 -19 105 -171 166 -253 80 -108 274 -298 367 -361 90 -60 225 -116 340
-141 64 -14 127 -18 264 -18 161 0 191 3 285 27 222 56 355 130 470 261 l42
48 -23 62 c-129 353 -370 597 -674 682 -71 20 -347 29 -439 15z"/>
<path d="M10050 8450 c-74 -4 -171 -15 -215 -24 -70 -15 -385 -103 -391 -109
-6 -6 72 -127 103 -158 52 -55 113 -84 314 -150 223 -73 272 -98 293 -149 22
-57 39 -201 34 -304 -3 -77 -8 -100 -33 -146 -43 -80 -165 -198 -247 -239 -38
-19 -68 -36 -68 -37 0 -9 139 50 190 81 48 29 146 131 181 187 5 8 37 -18 101
-84 106 -108 186 -159 312 -195 92 -27 133 -29 61 -4 -115 41 -199 93 -270
165 -93 95 -135 173 -135 255 0 65 24 239 41 305 19 71 46 86 267 159 229 75
295 105 357 159 51 45 85 119 65 142 -6 9 -57 33 -113 55 -247 96 -410 113
-847 91z"/>
</g>
</svg>
